<svg width="61" height="80" viewBox="0 0 61 80" fill="none" xmlns="http://www.w3.org/2000/svg">
<path d="M27.7111 31.2275C27.1611 29.5775 24.8311 29.5775 24.2811 31.2275L21.0561 40.9125C20.3462 43.0415 19.1502 44.9759 17.5629 46.5624C15.9755 48.1489 14.0405 49.3438 11.9111 50.0525L2.23106 53.2775C0.581066 53.8275 0.581066 56.1575 2.23106 56.7075L11.9161 59.9325C14.0451 60.6424 15.9795 61.8384 17.566 63.4257C19.1524 65.0131 20.3474 66.9481 21.0561 69.0775L24.2811 78.7575C24.3996 79.1188 24.6293 79.4334 24.9373 79.6565C25.2452 79.8796 25.6158 79.9997 25.9961 79.9997C26.3763 79.9997 26.7469 79.8796 27.0549 79.6565C27.3628 79.4334 27.5925 79.1188 27.7111 78.7575L30.9361 69.0725C31.6454 66.944 32.8407 65.01 34.4271 63.4235C36.0135 61.8371 37.9476 60.6419 40.0761 59.9325L49.7611 56.7075C50.1224 56.5889 50.437 56.3593 50.6601 56.0513C50.8831 55.7433 51.0032 55.3728 51.0032 54.9925C51.0032 54.6122 50.8831 54.2417 50.6601 53.9337C50.437 53.6257 50.1224 53.3961 49.7611 53.2775L40.0761 50.0525C37.9476 49.3432 36.0135 48.1479 34.4271 46.5615C32.8407 44.975 31.6454 43.041 30.9361 40.9125L27.7111 31.2275ZM47.0261 5.73251C46.9544 5.51599 46.8163 5.32756 46.6313 5.19401C46.4464 5.06046 46.2242 4.98858 45.9961 4.98858C45.768 4.98858 45.5457 5.06046 45.3608 5.19401C45.1759 5.32756 45.0378 5.51599 44.9661 5.73251L43.0311 11.5425C42.1661 14.1325 40.1361 16.1625 37.5461 17.0275L31.7361 18.9625C31.5195 19.0342 31.3311 19.1723 31.1976 19.3572C31.064 19.5421 30.9921 19.7644 30.9921 19.9925C30.9921 20.2206 31.064 20.4429 31.1976 20.6278C31.3311 20.8127 31.5195 20.9508 31.7361 21.0225L37.5461 22.9575C38.8234 23.3831 39.9841 24.1003 40.9362 25.0524C41.8882 26.0044 42.6055 27.1651 43.0311 28.4425L44.9661 34.2525C45.0378 34.469 45.1759 34.6575 45.3608 34.791C45.5457 34.9246 45.768 34.9964 45.9961 34.9964C46.2242 34.9964 46.4464 34.9246 46.6313 34.791C46.8163 34.6575 46.9544 34.469 47.0261 34.2525L48.9611 28.4425C49.3866 27.1651 50.1039 26.0044 51.0559 25.0524C52.008 24.1003 53.1687 23.3831 54.4461 22.9575L60.2561 21.0225C60.4726 20.9508 60.661 20.8127 60.7946 20.6278C60.9281 20.4429 61 20.2206 61 19.9925C61 19.7644 60.9281 19.5421 60.7946 19.3572C60.661 19.1723 60.4726 19.0342 60.2561 18.9625L54.4461 17.0275C53.1687 16.6019 52.008 15.8847 51.0559 14.9326C50.1039 13.9806 49.3866 12.8199 48.9611 11.5425L47.0261 5.73251ZM11.6811 0.487513C11.6317 0.345145 11.5392 0.221693 11.4165 0.134321C11.2937 0.0469495 11.1467 0 10.9961 0C10.8454 0 10.6984 0.0469495 10.5757 0.134321C10.4529 0.221693 10.3604 0.345145 10.3111 0.487513L9.02106 4.35751C8.44606 6.08751 7.09107 7.44251 5.36107 8.01751L1.49107 9.30751C1.3487 9.35687 1.22524 9.44936 1.13787 9.57213C1.0505 9.69489 1.00355 9.84183 1.00355 9.99251C1.00355 10.1432 1.0505 10.2901 1.13787 10.4129C1.22524 10.5357 1.3487 10.6282 1.49107 10.6775L5.36107 11.9675C6.21362 12.2511 6.98832 12.7296 7.62365 13.3649C8.25899 14.0003 8.73745 14.775 9.02106 15.6275L10.3111 19.4975C10.3604 19.6399 10.4529 19.7633 10.5757 19.8507C10.6984 19.9381 10.8454 19.985 10.9961 19.985C11.1467 19.985 11.2937 19.9381 11.4165 19.8507C11.5392 19.7633 11.6317 19.6399 11.6811 19.4975L12.9711 15.6275C13.2547 14.775 13.7331 14.0003 14.3685 13.3649C15.0038 12.7296 15.7785 12.2511 16.6311 11.9675L20.4961 10.6775C20.6384 10.6282 20.7619 10.5357 20.8493 10.4129C20.9366 10.2901 20.9836 10.1432 20.9836 9.99251C20.9836 9.84183 20.9366 9.69489 20.8493 9.57213C20.7619 9.44936 20.6384 9.35687 20.4961 9.30751L16.6261 8.01751C14.8961 7.44251 13.5411 6.08751 12.9661 4.35751L11.6811 0.492513V0.487513Z" fill="white"/>
</svg>
